<?xml version="1.0" encoding="UTF-8" standalone="no"?>
<!-- Generator: Adobe Illustrator 18.1.0, SVG Export Plug-In . SVG Version: 6.00 Build 0)  -->

<svg
   xmlns:dc="http://purl.org/dc/elements/1.1/"
   xmlns:cc="http://creativecommons.org/ns#"
   xmlns:rdf="http://www.w3.org/1999/02/22-rdf-syntax-ns#"
   xmlns:svg="http://www.w3.org/2000/svg"
   xmlns="http://www.w3.org/2000/svg"
   xmlns:sodipodi="http://sodipodi.sourceforge.net/DTD/sodipodi-0.dtd"
   xmlns:inkscape="http://www.inkscape.org/namespaces/inkscape"
   version="1.1"
   id="Layer_1"
   x="0px"
   y="0px"
   viewBox="0 0 181 209"
   enable-background="new 0 0 320 240"
   xml:space="preserve"
   inkscape:version="0.92.3 (2405546, 2018-03-11)"
   sodipodi:docname="compress.svg"
   width="181"
   height="209"
   inkscape:export-filename="/home/mc/Papers/Projects/Forks/hexbin/hexagons/mongodb.png"
   inkscape:export-xdpi="90"
   inkscape:export-ydpi="90"><metadata
     id="metadata65"><rdf:RDF><cc:Work
         rdf:about=""><dc:format>image/svg+xml</dc:format><dc:type
           rdf:resource="http://purl.org/dc/dcmitype/StillImage" /><dc:title></dc:title></cc:Work></rdf:RDF></metadata><defs
     id="defs63" /><sodipodi:namedview
     pagecolor="#ffffff"
     bordercolor="#666666"
     borderopacity="1"
     objecttolerance="10"
     gridtolerance="10"
     guidetolerance="10"
     inkscape:pageopacity="0"
     inkscape:pageshadow="2"
     inkscape:window-width="1920"
     inkscape:window-height="1036"
     id="namedview61"
     showgrid="false"
     fit-margin-top="0"
     fit-margin-left="0"
     fit-margin-right="0"
     fit-margin-bottom="0"
     inkscape:zoom="1.6562485"
     inkscape:cx="122.03258"
     inkscape:cy="70.077921"
     inkscape:window-x="0"
     inkscape:window-y="25"
     inkscape:window-maximized="1"
     inkscape:current-layer="Layer_1" /><polygon
     points="251,171.7 160.5,224 70,171.7 70,67.2 160.5,15 251,67.2 "
     id="polygon3"
     style="fill:#4d4d4d;fill-opacity:1"
     transform="translate(-70,-15)" /><polygon
     points="70,171.7 70,67.2 160.5,15 251,67.2 251,171.7 160.5,224 "
     id="polygon3-3"
     style="fill:#ffffff;fill-opacity:1"
     transform="matrix(0.88665879,0,0,0.88665879,-51.808736,-1.4557254)" /><path
     id="path4891"
     d="M 90.499877,98.677808 V 75.630839 c 0,-5.186993 6.271114,-7.784614 9.939023,-4.116943 l 6.72063,6.720628 27.22141,-27.221405 c 1.13676,-1.136761 2.97994,-1.136761 4.11694,0 l 5.48901,5.489015 c 1.13677,1.136761 1.13677,2.979937 0,4.116942 l -27.22164,27.221404 6.72062,6.720627 c 3.66768,3.667672 1.07006,9.938793 -4.11693,9.938793 H 96.321966 c -3.215493,0 -5.822089,-2.6066 -5.822089,-5.822092 z m -43.881058,59.308862 27.221406,-27.22141 6.720626,6.72063 c 3.667912,3.66767 9.939026,1.07005 9.939026,-4.11694 v -23.04697 c 0,-3.2155 -2.606596,-5.82208 -5.82208,-5.82208 H 61.630828 c -5.186997,0 -7.784618,6.2711 -4.116946,9.93902 l 6.720626,6.72063 -27.221403,27.2214 c -1.136762,1.13677 -1.136762,2.97994 0,4.11695 l 5.489014,5.48901 c 1.136762,1.13676 2.979938,1.13676 4.1167,-2.4e-4 z"
     inkscape:connector-curvature="0"
     style="fill:#4d4d4d;stroke-width:0.24258691" /></svg>